<svg width="128" height="41" viewBox="0 0 128 41" fill="none" xmlns="http://www.w3.org/2000/svg">
<path opacity="0.4" d="M9.06097 27.2762C9.06097 27.4102 8.97162 27.4325 8.82643 27.5219C8.63657 27.6336 8.51372 27.7788 8.36853 27.9798C8.22333 28.192 8.07815 28.4824 7.97763 28.7169C7.69842 29.3312 5.20784 34.9489 5.12967 35.0941C5.10733 35.15 5.07382 35.1835 5.02915 35.1835H4.77227C4.69409 35.1835 4.68293 35.1611 4.66059 35.0941C4.66059 35.0941 2.34871 29.0743 2.21469 28.7169C2.00249 28.192 1.8573 27.8569 1.65627 27.6671C1.55575 27.5666 1.4664 27.5219 1.36589 27.4772C1.27654 27.4325 1.20953 27.3879 1.20953 27.2873C1.20953 27.1645 1.31004 27.1198 1.52224 27.1198H3.08583C3.24219 27.1198 3.32037 27.1868 3.32037 27.2985C3.32037 27.3879 3.25336 27.4325 3.15284 27.4772C2.98532 27.5554 2.86246 27.6559 2.86246 27.8458C2.86246 27.991 2.94064 28.2367 3.13051 28.7281C3.40972 29.4205 4.97331 33.5194 5.09616 33.8432C5.1185 33.8991 5.12967 33.9214 5.16317 33.9214C5.19668 33.9214 5.20784 33.8768 5.23018 33.8321C5.30836 33.6534 6.55923 30.7384 7.00597 29.6327C7.29635 28.9403 7.53089 28.393 7.53089 28.0021C7.53089 27.7229 7.40804 27.5777 7.1735 27.4772C7.05064 27.4214 7.01714 27.3767 7.01714 27.2873C7.01714 27.1757 7.12882 27.1198 7.31869 27.1198H8.75942C8.96046 27.1198 9.06097 27.1645 9.06097 27.2762ZM24.7029 33.0279C24.8481 33.0279 24.9597 33.095 24.9597 33.2848C24.9597 33.4188 24.9262 33.5194 24.8704 33.7316C24.6805 34.4575 24.7029 35.1835 24.0886 35.1835C23.7759 35.1835 23.2956 35.0941 22.2458 35.0941H19.476C19.2862 35.0941 19.1633 35.0606 19.1633 34.9154C19.1633 34.8149 19.2638 34.7702 19.3532 34.7144C19.4872 34.6362 19.5989 34.5357 19.6771 34.424C19.7664 34.2676 19.8222 34.0778 19.8222 33.296V28.7057C19.8222 27.9128 19.8222 27.7341 19.5207 27.5777C19.3978 27.4995 19.2191 27.466 19.2191 27.3097C19.2191 27.1868 19.3197 27.1198 19.4872 27.1198H22.3575C23.4408 27.1198 23.9211 27.0305 24.2115 27.0305C24.4125 27.0305 24.5912 27.1086 24.6024 27.332C24.6135 27.4995 24.6135 27.7676 24.6247 28.0356C24.6359 28.2925 24.647 28.5494 24.647 28.7392C24.647 28.9961 24.5577 29.0743 24.4237 29.0743C24.2896 29.0743 24.2115 29.0408 24.1221 28.8174C23.9657 28.4377 23.9211 28.125 23.5302 27.8569C23.184 27.6112 22.5027 27.5777 21.6427 27.5777H20.8944C20.7381 27.5777 20.6822 27.6447 20.6822 27.7788C20.6822 27.9128 20.6822 30.4369 20.6822 30.4369C20.6822 30.6044 20.7269 30.6602 20.9168 30.6602C21.1625 30.6602 21.5199 30.6602 22.0671 30.6267C22.5138 30.6044 22.8712 30.5709 23.2733 30.5709C23.4632 30.5709 23.6754 30.5709 23.6754 30.7384C23.6754 30.8278 23.6419 30.8836 23.6307 30.9394C23.5749 31.2187 23.4632 31.241 23.184 31.241C22.8266 31.241 22.4357 31.1963 21.9554 31.1851C21.531 31.174 21.0396 31.1628 20.8162 31.1628C20.7157 31.1628 20.6822 31.2187 20.6822 31.308V33.6869C20.6822 34.1895 20.6934 34.4128 20.8386 34.5134C20.9838 34.6139 21.3747 34.6474 21.7767 34.6474C22.1006 34.6474 22.4357 34.625 22.6367 34.6027C23.5972 34.4798 23.8317 34.1783 24.3566 33.3183C24.4683 33.1285 24.5465 33.0279 24.7029 33.0279ZM42.6852 27.1198C42.8862 27.1198 42.9979 27.1533 42.9979 27.2985C42.9979 27.4437 42.8415 27.4884 42.7075 27.5442C42.4395 27.6559 42.2049 27.8458 42.1379 28.8956C42.1044 29.3982 42.1044 31.7994 42.1044 33.4523V35.0494C42.1044 35.1165 42.0597 35.1835 41.9592 35.1835H41.7359C41.6577 35.1835 41.6242 35.1276 41.5795 35.0718L36.8776 28.5606C36.8552 28.527 36.8441 28.527 36.8329 28.527C36.7994 28.527 36.7882 28.5494 36.7882 28.5829C36.7882 29.5657 36.7882 32.6929 36.8217 33.2625C36.8887 34.1895 37.1344 34.5245 37.6147 34.6921C37.7599 34.7479 37.8157 34.8149 37.8157 34.9043C37.8157 35.0271 37.6929 35.0941 37.5365 35.0941H35.6714C35.4368 35.0941 35.3698 35.0048 35.3698 34.9043C35.381 34.7702 35.5262 34.7256 35.6379 34.6697C35.9506 34.5357 36.2075 34.223 36.2521 33.2625C36.2856 32.6482 36.308 28.2143 36.308 27.9575C36.308 27.8681 36.2745 27.8346 36.241 27.8011C36.1516 27.7117 36.0623 27.6447 35.8836 27.5777C35.649 27.4995 35.4368 27.4995 35.4368 27.3209C35.4368 27.1533 35.5932 27.1198 35.7495 27.1198H36.6765C36.8106 27.1198 36.9111 27.1422 36.9892 27.2538L41.5125 33.5305C41.5348 33.564 41.5572 33.5864 41.5795 33.5864C41.6018 33.5864 41.6242 33.5752 41.6242 33.5417C41.6242 32.3132 41.6242 29.5881 41.5907 28.8956C41.546 27.9575 41.345 27.6671 40.9987 27.5442C40.8647 27.4995 40.7084 27.466 40.7084 27.3209C40.7084 27.1757 40.8312 27.1198 41.0434 27.1198H42.6852ZM59.2875 28.7392C59.2875 28.9961 59.1981 29.0855 59.0529 29.0855C58.9413 29.0855 58.8519 29.052 58.7626 28.8174C58.6062 28.4377 58.5615 28.125 58.1706 27.8569C57.8021 27.6001 57.3107 27.6001 56.7299 27.6001H56.6629C56.5959 27.6001 56.5624 27.6336 56.5624 27.6894C56.5624 27.6894 56.5624 27.7564 56.5624 33.2625C56.5624 34.0331 56.6517 34.29 56.7411 34.4575C56.8192 34.5915 56.9868 34.6697 57.0649 34.7144C57.199 34.7702 57.2325 34.8484 57.2325 34.9154C57.2325 35.0494 57.1096 35.0941 56.9756 35.0941H55.3115C55.1663 35.0941 55.0546 35.0494 55.0546 34.9154C55.0546 34.8484 55.0993 34.7702 55.2221 34.7144C55.2892 34.6697 55.4567 34.5915 55.546 34.4575C55.6354 34.29 55.7136 34.0331 55.7136 33.2625C55.7136 27.7564 55.7136 27.6894 55.7136 27.6894C55.7136 27.6336 55.6801 27.6001 55.6242 27.6001H55.546C54.9429 27.6001 54.5074 27.6001 54.1276 27.8569C53.7367 28.125 53.6921 28.4377 53.5469 28.8174C53.4575 29.052 53.357 29.0855 53.2565 29.0855C53.089 29.0855 53.0108 28.9961 53.0108 28.7392C53.022 28.3372 53.0443 27.6671 53.0666 27.332C53.0778 27.1086 53.2565 27.0305 53.4575 27.0305C53.7367 27.0305 54.2281 27.1198 55.3003 27.1198H56.9979C58.0813 27.1198 58.5615 27.0305 58.8519 27.0305C59.0529 27.0305 59.2316 27.1086 59.2428 27.332C59.2651 27.6671 59.2763 28.3372 59.2875 28.7392ZM76.44 27.1198C76.641 27.1198 76.7527 27.1533 76.7527 27.2873C76.7527 27.4325 76.6299 27.4772 76.4735 27.5331C76.1943 27.6336 75.9821 27.8458 75.9039 28.8956C75.8816 29.2083 75.8816 29.9678 75.8816 30.7384V32.1903C75.8816 32.7711 75.8146 33.2066 75.6694 33.6087C75.2561 34.6809 74.2733 35.217 72.9443 35.217C71.7939 35.217 70.6436 34.9154 70.208 33.8544C70.0069 33.3853 69.9399 32.8716 69.9399 32.1121V28.7951C69.9399 27.9239 69.9399 27.7341 69.6384 27.5666C69.5155 27.4995 69.3368 27.4549 69.3368 27.3097C69.3368 27.1868 69.4374 27.1198 69.6049 27.1198H71.135C71.3025 27.1198 71.4142 27.1868 71.4142 27.3097C71.4142 27.4549 71.2355 27.4995 71.1015 27.5666C70.7999 27.7229 70.7999 27.9128 70.7999 28.7057V31.9558C70.7999 32.5589 70.8558 33.0391 71.0009 33.4412C71.3025 34.2453 71.9614 34.6362 73.0783 34.6362C74.5302 34.6362 75.3678 33.9438 75.3678 32.1456C75.3678 31.0846 75.3678 29.4094 75.3455 28.8844C75.3008 27.9575 75.1109 27.6782 74.7536 27.5442C74.6084 27.4884 74.4855 27.466 74.4855 27.3097C74.4855 27.1757 74.586 27.1198 74.7982 27.1198H76.44ZM89.4887 30.7719C90.5944 30.7719 91.6554 30.3587 91.6554 29.0855C91.6554 27.6336 90.505 27.5777 89.5334 27.5777C89.5334 27.5777 88.975 27.5777 88.7963 27.5777C88.6176 27.5777 88.5394 27.6447 88.5394 27.7788V30.6156C88.5394 30.6937 88.5952 30.7719 88.7293 30.7719C88.7963 30.7719 89.4887 30.7719 89.4887 30.7719ZM93.3753 34.6921C93.4647 34.7479 93.5875 34.7926 93.5875 34.9154C93.5875 35.0271 93.487 35.0941 93.353 35.0941H92.7164C92.4037 35.0941 92.292 34.9378 92.1468 34.6809C91.9346 34.3347 91.6331 33.43 91.3539 32.7487C91.0076 31.9334 90.6391 31.3973 89.9131 31.2633C89.7344 31.2298 89.444 31.2075 89.1872 31.2075C88.9526 31.2075 88.7404 31.2187 88.6734 31.2298C88.5729 31.241 88.5394 31.2857 88.5394 31.3638C88.5394 31.4309 88.5394 33.2625 88.5394 33.2625C88.5394 34.0331 88.6176 34.29 88.7069 34.4463C88.7963 34.5915 88.9638 34.6697 89.042 34.7032C89.1648 34.7702 89.2095 34.8372 89.2095 34.9154C89.2095 35.0494 89.0866 35.0941 88.9415 35.0941H87.2885C87.1433 35.0941 87.0316 35.0494 87.0316 34.9154C87.0316 34.8372 87.0763 34.7702 87.1992 34.7032C87.2774 34.6697 87.4449 34.5915 87.5231 34.4463C87.6236 34.29 87.6906 34.0331 87.6906 33.2625V28.7951C87.6906 27.9239 87.6906 27.7453 87.389 27.5666C87.2662 27.4995 87.0875 27.466 87.0875 27.3097C87.0875 27.1868 87.188 27.1198 87.3555 27.1198H88.5394C89.0196 27.1198 89.4887 27.1086 89.9243 27.1086C90.6614 27.1086 91.5102 27.1757 92.0463 27.6559C92.4484 28.0245 92.6047 28.5047 92.6047 28.9626C92.6047 30.1018 91.7559 30.7719 90.7843 30.9283C90.7061 30.9394 90.6949 30.9618 90.6949 30.9953C90.6949 31.0176 90.7061 31.04 90.7843 31.0511C91.5102 31.174 91.8229 31.5872 92.3255 32.7934C92.9063 34.2006 93.0738 34.558 93.3753 34.6921ZM109.413 33.0279C109.558 33.0279 109.67 33.095 109.67 33.2848C109.67 33.4188 109.637 33.5194 109.581 33.7316C109.391 34.4575 109.413 35.1835 108.799 35.1835C108.486 35.1835 108.006 35.0941 106.956 35.0941H104.186C103.996 35.0941 103.874 35.0606 103.874 34.9154C103.874 34.8149 103.974 34.7702 104.063 34.7144C104.198 34.6362 104.309 34.5357 104.387 34.424C104.477 34.2676 104.533 34.0778 104.533 33.296V28.7057C104.533 27.9128 104.533 27.7341 104.231 27.5777C104.108 27.4995 103.929 27.466 103.929 27.3097C103.929 27.1868 104.03 27.1198 104.198 27.1198H107.068C108.151 27.1198 108.631 27.0305 108.922 27.0305C109.123 27.0305 109.302 27.1086 109.313 27.332C109.324 27.4995 109.324 27.7676 109.335 28.0356C109.346 28.2925 109.357 28.5494 109.357 28.7392C109.357 28.9961 109.268 29.0743 109.134 29.0743C109 29.0743 108.922 29.0408 108.832 28.8174C108.676 28.4377 108.631 28.125 108.241 27.8569C107.894 27.6112 107.213 27.5777 106.353 27.5777H105.605C105.448 27.5777 105.393 27.6447 105.393 27.7788C105.393 27.9128 105.393 30.4369 105.393 30.4369C105.393 30.6044 105.437 30.6602 105.627 30.6602C105.873 30.6602 106.23 30.6602 106.777 30.6267C107.224 30.6044 107.582 30.5709 107.984 30.5709C108.173 30.5709 108.386 30.5709 108.386 30.7384C108.386 30.8278 108.352 30.8836 108.341 30.9394C108.285 31.2187 108.173 31.241 107.894 31.241C107.537 31.241 107.146 31.1963 106.666 31.1851C106.241 31.174 105.75 31.1628 105.527 31.1628C105.426 31.1628 105.393 31.2187 105.393 31.308V33.6869C105.393 34.1895 105.404 34.4128 105.549 34.5134C105.694 34.6139 106.085 34.6474 106.487 34.6474C106.811 34.6474 107.146 34.625 107.347 34.6027C108.308 34.4798 108.542 34.1783 109.067 33.3183C109.179 33.1285 109.257 33.0279 109.413 33.0279ZM124.739 27.5554C124.962 27.8123 125.041 28.2702 125.041 28.6164C125.041 28.9403 125.007 29.1972 124.795 29.1972C124.672 29.1972 124.605 29.1525 124.504 28.985C124.348 28.7281 124.136 28.2813 123.823 27.9686C123.533 27.6894 123.153 27.4437 122.595 27.4437C121.668 27.4549 121.087 28.1138 121.087 28.8174C121.087 29.2418 121.277 29.5769 121.578 29.8338C122.193 30.3587 123.432 30.4257 124.404 31.0288C125.052 31.4309 125.342 31.9893 125.342 32.6929C125.342 33.4523 124.962 34.089 124.437 34.5357C123.913 34.9824 123.309 35.217 122.472 35.217C121.478 35.217 120.54 34.8931 120.227 34.3347C120.071 34.0443 120.048 33.7204 120.026 33.3965C120.015 33.2737 120.004 33.1731 120.004 33.0279C120.004 32.8269 120.115 32.7487 120.238 32.7487C120.316 32.7487 120.383 32.7822 120.439 32.8604C120.54 32.9833 120.662 33.2737 120.841 33.5417C121.132 33.9661 121.712 34.7144 122.762 34.7144C123.845 34.7144 124.594 33.9996 124.594 33.0726C124.594 32.5254 124.359 32.1456 123.991 31.8888C123.131 31.2857 121.668 31.3192 120.819 30.4369C120.551 30.1576 120.339 29.7332 120.339 29.1972C120.339 27.9575 121.455 26.9858 122.941 26.9858C123.711 26.9858 124.46 27.2203 124.739 27.5554Z" fill="url(#paint0_linear_3713_421)"/>
<path fill-rule="evenodd" clip-rule="evenodd" d="M126.298 20.1038V19.4144C124.726 19.2542 124.537 19.1497 124.537 17.3692V12.2666C124.537 9.66425 123.183 8.20173 121.098 8.20173C120.312 8.20173 119.635 8.51977 119.039 8.89121C118.388 9.2905 117.604 9.79425 116.819 10.3793C116.251 9.02353 115.086 8.20173 113.784 8.20173C112.944 8.20173 112.295 8.51977 111.59 8.9446C110.75 9.42282 110.182 9.90104 109.614 10.2725V8.12048C108.395 8.6521 107.041 8.99799 105.85 9.20925V9.81979C107.422 10.0589 107.502 10.1912 107.502 11.8929V17.3645C107.502 19.0917 107.259 19.2496 105.472 19.4097V20.0992H111.185V19.4097C109.858 19.2496 109.614 19.0917 109.614 17.3645V11.1523C110.426 10.4884 111.51 9.77104 112.565 9.77104C114.243 9.77104 114.949 10.8598 114.949 12.8261V17.3692C114.949 19.1219 114.705 19.2542 113.027 19.4144V20.1038H118.823V19.4144C117.335 19.2542 117.091 19.0963 117.091 17.4226V12.2689C117.091 11.7652 117.065 11.4727 117.01 11.1523C118.04 10.3282 119.041 9.77104 120.016 9.77104C121.723 9.77104 122.4 10.9666 122.4 12.8516V17.2601C122.4 19.1195 122.102 19.2519 120.53 19.4121V20.1015H126.298V20.1038Z" fill="white"/>
<path fill-rule="evenodd" clip-rule="evenodd" d="M103.115 11.4959C103.058 10.832 102.745 9.26501 102.49 8.68C101.922 8.44089 101.152 8.20178 99.9878 8.20178C97.3724 8.20178 95.6659 9.79662 95.6659 11.6561C95.6659 13.6758 97.5144 14.551 99.221 15.2962C100.643 15.9067 101.467 16.5172 101.467 17.6873C101.467 18.8294 100.499 19.5467 99.4482 19.5467C97.7417 19.5467 96.4612 18.0053 95.9783 16.2805L95.2114 16.3872C95.2114 17.3437 95.4954 19.1498 95.6943 19.5212C96.1771 19.9205 97.486 20.4243 98.9369 20.4243C101.212 20.4243 103.631 19.1753 103.631 16.7587C103.631 14.9247 102.18 13.9961 100.019 13.172C98.7665 12.6683 97.6304 12.0554 97.6304 10.8877C97.6304 9.82448 98.3689 9.05376 99.479 9.05376C100.873 9.05376 101.839 10.0891 102.409 11.684L103.115 11.4959Z" fill="white"/>
<path fill-rule="evenodd" clip-rule="evenodd" d="M93.5898 20.1038V19.4143C91.8573 19.2542 91.6679 19.0963 91.6679 17.2902V8.14832C90.5034 8.62654 89.204 8.97243 87.8217 9.18369V9.82209C89.4477 10.0612 89.5282 10.1935 89.5282 11.8139V17.2856C89.5282 19.0917 89.3389 19.2518 87.6323 19.4097V20.0992H93.5898V20.1038Z" fill="white"/>
<path fill-rule="evenodd" clip-rule="evenodd" d="M90.4208 2.81128C89.7154 2.81128 89.0669 3.42182 89.0669 4.21808C89.0669 4.90988 89.7178 5.54596 90.4208 5.54596C91.2066 5.54596 91.803 4.90756 91.803 4.19023C91.803 3.4195 91.2066 2.80896 90.4492 2.80896H90.4208V2.81128Z" fill="white"/>
<path fill-rule="evenodd" clip-rule="evenodd" d="M86.0415 20.1038V19.4144C84.4699 19.2542 84.3089 19.1497 84.3089 17.3436V12.2132C84.3089 9.66425 82.9811 8.20173 80.8154 8.20173C80.0295 8.20173 79.3266 8.51977 78.5668 8.99799C77.8899 9.45068 77.2934 9.84765 76.7514 10.2469V8.1228C75.5608 8.65442 74.2874 8.97246 72.988 9.21157V9.82211C74.4507 10.0868 74.6141 10.168 74.6141 11.8673V17.3413C74.6141 19.094 74.4791 19.2263 72.6377 19.4121V20.1015H78.5147V19.4121C76.9171 19.2519 76.7537 19.1474 76.7537 17.3413V11.1244C77.5656 10.4327 78.6236 9.76872 79.7053 9.76872C81.5207 9.76872 82.1692 10.9643 82.1692 12.7959V17.2043C82.1692 19.0383 81.9799 19.2495 80.3822 19.4097V20.0992H86.0415V20.1038Z" fill="white"/>
<path fill-rule="evenodd" clip-rule="evenodd" d="M67.497 17.8705C66.9834 18.3743 66.0343 18.827 65.3313 18.827C64.491 18.827 63.4094 18.1886 63.4094 16.8073C63.4094 15.8253 64.0058 15.3471 65.0615 14.8689C65.6295 14.6042 66.9313 14.0448 67.4994 13.7523V17.8705H67.497ZM71.7764 19.0661L71.5066 18.3766C71.2367 18.5368 70.8557 18.6946 70.5314 18.6946C70.0698 18.6946 69.5846 18.2954 69.5846 17.0998V12.1876C69.5846 10.7808 69.3148 9.71757 68.3657 8.92131C67.7692 8.44309 66.9574 8.20398 66.1455 8.20398C64.6023 8.54988 62.8673 9.53185 62.1099 10.0635C61.5963 10.4349 61.2697 10.7274 61.2697 11.1267C61.2697 11.7372 61.9466 12.2433 62.4342 12.2433C62.8129 12.2433 63.0851 12.0576 63.22 11.6328C63.4638 10.8365 63.6816 10.2515 64.0319 9.90561C64.3017 9.58757 64.7088 9.40185 65.2224 9.40185C66.6047 9.40185 67.497 10.4651 67.497 12.4035V12.8562C66.9006 13.3344 64.9242 14.0517 63.2981 14.5833C61.8093 15.0871 61.104 15.9112 61.104 17.1857C61.104 18.8595 62.4318 20.4265 64.3538 20.4265C65.1656 20.4265 66.4674 19.4445 67.5491 18.7271C67.684 19.2054 67.8473 19.5768 68.2 19.9227C68.4982 20.1873 69.0663 20.4265 69.4734 20.4265L71.7764 19.0661Z" fill="white"/>
<path fill-rule="evenodd" clip-rule="evenodd" d="M59.4067 20.1038V19.4144C57.8351 19.282 57.6197 19.1219 57.6197 17.3692V12.7193C57.6197 9.55745 56.0765 8.20404 53.8824 8.20404C52.4196 8.20404 50.9853 9.18602 50.0101 10.1425V1.19092C48.9545 1.50896 47.3284 1.93378 46.029 2.1195V2.7579C47.816 2.91808 47.8704 3.02255 47.8704 4.69632V17.3668C47.8704 19.1195 47.6527 19.2797 46.029 19.412L46.0029 20.1015H51.7711V19.412C50.145 19.2519 50.0101 19.0661 50.0101 17.3668V11.071C50.7675 10.2214 51.7971 9.71531 52.8267 9.71531C54.6421 9.71531 55.48 10.8041 55.48 12.9816V17.3645C55.48 19.0917 55.2623 19.2495 53.693 19.4097V20.0992H59.4067V20.1038Z" fill="white"/>
<path fill-rule="evenodd" clip-rule="evenodd" d="M44.7819 17.2995C43.5274 18.3697 42.7203 18.6135 41.6599 18.6135C39.9321 18.6204 37.6244 17.2252 37.6078 13.7268C37.6078 10.9387 38.964 9.25335 40.5641 9.1837C41.8138 9.13031 42.6493 10.0589 42.9049 11.0687C42.9783 11.3612 43.5393 11.3636 43.7002 11.345C44.2872 11.2823 44.6115 10.8807 44.5736 10.3235C44.4931 9.1837 42.5286 8.19012 41.2954 8.19941C40.3037 8.20637 39.3238 8.45709 37.9155 9.51799C36.2942 10.9039 35.4705 12.84 35.4941 14.8922C35.4941 17.7336 37.409 20.4172 40.8221 20.4172C42.2185 20.4172 44.0055 19.412 45.189 17.8799L44.7819 17.2995Z" fill="white"/>
<path fill-rule="evenodd" clip-rule="evenodd" d="M28.8502 9.18608C30.339 9.18608 31.2597 10.4606 31.2336 11.8418C31.2336 12.2133 31.0703 12.3456 30.5827 12.3456C29.0111 12.399 27.4963 12.4245 25.9791 12.4245C26.3862 10.3004 27.6052 9.18376 28.8218 9.18376H28.8502V9.18608ZM33.0207 17.288C32.0195 18.191 31.0159 18.6158 29.9058 18.6158C28.0099 18.6158 25.8702 17.1278 25.8442 13.5156C29.094 13.4088 32.507 13.1442 32.9402 13.0629C33.4538 12.9561 33.5627 12.7449 33.5627 12.2133C33.5627 10.1681 31.7473 8.20178 29.5011 8.20178H29.475C28.0928 8.20178 26.6324 8.94465 25.5199 10.1402C24.4098 11.3079 23.7329 12.9561 23.7329 14.7622C23.7329 17.7639 25.6832 20.4196 29.0135 20.4196C29.8537 20.4196 31.7212 19.9414 33.4278 17.8707L33.0207 17.288Z" fill="white"/>
<path fill-rule="evenodd" clip-rule="evenodd" d="M22.8333 20.1038V19.4144C21.2616 19.2542 21.0723 19.1497 21.0723 17.3692V12.2666C21.0723 9.66425 19.7184 8.20173 17.6332 8.20173C16.8473 8.20173 16.1704 8.51977 15.574 8.89121C14.9231 9.2905 14.1396 9.79425 13.3538 10.3793C12.7857 9.02353 11.6212 8.20173 10.3194 8.20173C9.47916 8.20173 8.83063 8.51977 8.12529 8.9446C7.28504 9.42282 6.71698 9.90104 6.14892 10.2725V8.12048C4.92997 8.6521 3.5761 8.99799 2.38554 9.20925V9.81979C3.95717 10.0589 4.03764 10.1912 4.03764 11.8929V17.3645C4.03764 19.0917 3.79385 19.2496 2.00684 19.4097V20.0992H7.72055V19.4097C6.39272 19.2496 6.14892 19.0917 6.14892 17.3645V11.1523C6.96077 10.4884 8.04482 9.77104 9.10046 9.77104C10.7786 9.77104 11.4839 10.8598 11.4839 12.8261V17.3692C11.4839 19.1219 11.2401 19.2542 9.56201 19.4144V20.1038H15.3586V19.4144C13.8698 19.2542 13.626 19.0963 13.626 17.4226V12.2689C13.626 11.7652 13.5999 11.4727 13.5455 11.1523C14.5751 10.3282 15.5763 9.77104 16.5515 9.77104C18.258 9.77104 18.935 10.9666 18.935 12.8516V17.2601C18.935 19.1195 18.6367 19.2519 17.0675 19.4121V20.1015H22.8333V20.1038Z" fill="white"/>
<defs>
<linearGradient id="paint0_linear_3713_421" x1="1" y1="32.0941" x2="126" y2="32.0941" gradientUnits="userSpaceOnUse">
<stop stop-color="white"/>
<stop offset="1" stop-color="#999999"/>
</linearGradient>
</defs>
</svg>
